<svg width="150" height="150" viewBox="0 0 150 195.772" class="looka-1j8o68f"><g xmlns="http://www.w3.org/2000/svg"><path d="M70.287 25.808c-1.695 1.61-4.25 1.459-5.86-.243-1.526-1.606-1.543-4.169.153-5.775 1.615-1.526 4.25-1.459 5.78.153 1.611 1.696 1.537 4.335-.073 5.865M84.92 41.232c-1.693 1.606-4.252 1.454-5.786-.155-1.603-1.698-1.535-4.166.159-5.78 1.61-1.526 4.169-1.54 5.775.152 1.53 1.614 1.462 4.252-.148 5.783M78.54 33.857c-2.016 1.914-5.065 1.728-6.877-.182-1.917-2.015-1.925-5.061.088-6.971 1.914-1.819 5.057-1.735 6.964.281 1.819 1.918 1.735 5.054-.175 6.872M63.409 32.813c-1.269 1.201-3.334 1.072-4.54-.2a3.138 3.138 0 0 1 .123-4.459c1.27-1.207 3.332-1.237 4.538.035 1.208 1.271 1.153 3.417-.121 4.624M76.186 46.285a3.136 3.136 0 0 1-4.454-.114c-1.21-1.27-1.236-3.34.038-4.544 1.268-1.21 3.417-1.147 4.621.122 1.207 1.271 1.067 3.333-.205 4.536M60.337 6.732c-.56-.589-.535-1.58.142-2.225.593-.562 1.583-.54 2.15.053.644.683.619 1.667.02 2.233-.674.645-1.665.618-2.312-.061M49.388 16.995c-.562-.592-.534-1.576.058-2.142.682-.646 1.667-.618 2.233-.03.641.68.617 1.671-.063 2.316-.594.562-1.584.54-2.228-.144M45.642 11.812a1.258 1.258 0 0 1 .044-1.746c.554-.528 1.361-.51 1.82-.02.525.551.502 1.353-.052 1.877-.48.459-1.288.444-1.812-.111M55.564 2.137a1.258 1.258 0 0 1 .045-1.75c.55-.524 1.357-.501 1.817-.02.524.556.501 1.36-.052 1.884-.48.46-1.288.44-1.81-.114M48.095 4.138c-.564-.596-.535-1.587.053-2.153.593-.558 1.588-.531 2.155.065.636.672.61 1.667.017 2.229-.592.562-1.583.532-2.225-.141M65.423 12.632c-.966-1.014-.837-2.578.098-3.463 1.015-.964 2.498-.926 3.462.088.885.938.845 2.422-.166 3.383-.937.892-2.507.93-3.394-.008M53.813 23.644c-.963-1.014-.923-2.503.091-3.463.934-.88 2.502-.926 3.467.091.883.935.763 2.503-.17 3.383-1.018.964-2.503.926-3.388-.011M52.556 10.54c-.884-.933-.759-2.502.17-3.387 1.017-.964 2.503-.922 3.386.012.97 1.014.931 2.502-.089 3.466-.932.885-2.5.927-3.467-.091M58.393 17.713c-1.2-1.268-1.065-3.327.203-4.538a3.141 3.141 0 0 1 4.462.122c1.207 1.268 1.237 3.334-.038 4.541-1.273 1.207-3.418 1.147-4.627-.125"/><g><path d="M98.05 45.063c.58.577 1.57.57 2.224-.095.577-.581.57-1.572-.011-2.146-.669-.657-1.652-.653-2.23-.069-.652.662-.652 1.65.016 2.31M87.554 55.797c.585.573 1.572.57 2.15-.012.66-.668.653-1.655.075-2.233-.668-.653-1.662-.645-2.316.015-.577.582-.57 1.573.09 2.23M92.661 59.651c.475.467 1.28.463 1.751-.008.54-.539.531-1.347.057-1.815-.543-.535-1.348-.535-1.888.008-.463.475-.463 1.28.08 1.815M102.54 49.938c.475.463 1.285.463 1.751-.015.54-.54.532-1.348.061-1.815-.543-.54-1.351-.532-1.887.015-.467.471-.467 1.28.076 1.815M100.38 57.361c.59.57 1.58.566 2.157-.014.573-.578.569-1.576-.015-2.15-.66-.653-1.655-.65-2.233-.068-.573.58-.561 1.576.092 2.232M92.255 39.857c.991.987 2.56.892 3.463-.019.987-.995.98-2.48-.015-3.463-.919-.907-2.403-.9-3.387.096-.904.914-.98 2.486-.06 3.386M81 51.237c.995.986 2.48.976 3.471-.02.9-.918.972-2.479-.022-3.466-.92-.903-2.484-.82-3.388.098-.98 1-.972 2.484-.06 3.388M94.081 52.763c.912.908 2.484.813 3.384-.098.99-1.002.979-2.484.064-3.387-.994-.983-2.484-.98-3.466.019-.908.91-.98 2.486.018 3.466M87.023 46.775c1.245 1.234 3.31 1.14 4.548-.106a3.143 3.143 0 0 0-.03-4.46c-1.246-1.236-3.311-1.308-4.542-.058-1.237 1.25-1.222 3.394.024 4.624"/></g><path d="M77.325 19.417c1.253-1.226 1.2-3.295-.023-4.544a3.14 3.14 0 0 0-4.461-.049c-1.255 1.223-1.362 3.284-.137 4.537 1.227 1.253 3.375 1.279 4.62.056M90.303 32.7a3.145 3.145 0 0 0 .06-4.459c-1.23-1.256-3.294-1.359-4.548-.136-1.252 1.222-1.275 3.372-.052 4.625 1.222 1.253 3.287 1.197 4.54-.03M79.193 25.284c-1.606-1.697-1.458-4.256.243-5.859 1.61-1.526 4.17-1.541 5.78.153 1.518 1.61 1.45 4.253-.16 5.775-1.693 1.609-4.329 1.537-5.863-.069M63.77 39.91c-1.605-1.693-1.453-4.253.157-5.775 1.694-1.61 4.17-1.546 5.776.148 1.528 1.61 1.543 4.173-.15 5.78-1.614 1.53-4.254 1.461-5.783-.153"/><g><path d="M98.27 15.332c.592-.562 1.587-.532 2.225.14.562.597.531 1.584-.054 2.146-.68.65-1.67.623-2.232.027-.646-.677-.616-1.668.06-2.313M88.003 4.389c.592-.562 1.587-.54 2.149.053.645.68.615 1.663.023 2.233-.676.646-1.671.615-2.313-.061-.562-.6-.535-1.583.14-2.225M93.19.637c.481-.46 1.29-.436 1.75.046.523.554.505 1.356.015 1.815-.547.528-1.352.501-1.88-.05-.46-.485-.436-1.287.114-1.81M102.864 10.555a1.266 1.266 0 0 1 1.75.046c.52.554.502 1.363.02 1.819-.555.523-1.36.501-1.884-.05-.456-.482-.44-1.29.114-1.815M100.867 3.09c.592-.565 1.583-.539 2.146.054.566.593.535 1.587-.058 2.15-.676.637-1.67.615-2.232.022-.559-.59-.532-1.584.144-2.225M92.369 20.416c1.01-.96 2.582-.835 3.466.099.96 1.014.923 2.494-.095 3.462-.93.885-2.415.844-3.383-.171-.884-.93-.922-2.505.012-3.39M81.357 8.809c1.014-.96 2.499-.927 3.467.091.885.934.923 2.499-.095 3.467-.934.884-2.498.763-3.383-.171-.96-1.018-.923-2.503.011-3.387M94.457 7.551c.938-.888 2.506-.76 3.395.172.964 1.014.919 2.502-.012 3.387-1.021.964-2.506.93-3.467-.091-.884-.931-.926-2.503.084-3.468M87.284 13.391c1.272-1.199 3.334-1.066 4.541.202a3.144 3.144 0 0 1-.122 4.458c-1.272 1.208-3.334 1.238-4.541-.034-1.203-1.273-1.146-3.418.122-4.626"/></g><g><path d="M59.936 53.04c-.577.585-.568 1.576.094 2.23.584.577 1.576.573 2.151-.012.659-.665.651-1.655.07-2.23-.665-.653-1.652-.653-2.315.013M49.202 42.553c-.57.581-.57 1.572.014 2.146.667.66 1.654.652 2.233.071.657-.664.645-1.655-.013-2.316-.584-.577-1.575-.565-2.234.099M45.348 47.656a1.264 1.264 0 0 0 .008 1.75c.544.54 1.353.532 1.818.057.542-.539.534-1.347-.01-1.883-.474-.467-1.28-.463-1.816.076M55.066 57.54a1.256 1.256 0 0 0 .01 1.747c.541.535 1.348.532 1.816.06.534-.546.534-1.35-.013-1.882-.472-.472-1.277-.472-1.813.075M47.642 55.383c-.572.581-.572 1.572.013 2.152.579.57 1.573.566 2.15-.018.648-.66.646-1.656.07-2.233-.584-.57-1.577-.561-2.233.099M65.144 47.246c-.985.995-.894 2.563.02 3.467 1 .986 2.483.98 3.466-.016.907-.918.898-2.402-.099-3.386-.912-.908-2.485-.98-3.387-.065M53.764 35.995c-.985 1-.974 2.484.02 3.467.918.903 2.482.976 3.466-.019.903-.915.82-2.484-.096-3.387-.996-.983-2.486-.976-3.39-.06M52.24 49.072c-.91.915-.815 2.487.097 3.39.997.985 2.481.977 3.387.066.99-1.007.982-2.487-.017-3.475-.914-.9-2.486-.976-3.467.02M58.222 42.017c-1.23 1.25-1.136 3.316.11 4.545a3.134 3.134 0 0 0 4.458-.027c1.234-1.245 1.308-3.31.062-4.54-1.249-1.234-3.396-1.219-4.63.022"/></g></g></svg>